<svg width="24" height="21" viewBox="0 0 24 21" fill="none" xmlns="http://www.w3.org/2000/svg">
<path d="M17 19.98V17.98C17 16.9191 16.5786 15.9017 15.8284 15.1516C15.0783 14.4014 14.0609 13.98 13 13.98H5C3.93913 13.98 2.92172 14.4014 2.17157 15.1516C1.42143 15.9017 1 16.9191 1 17.98V19.98" stroke="#A5A5A5" stroke-width="2" stroke-linecap="round" stroke-linejoin="round"/>
<path d="M9 9.97998C11.2091 9.97998 13 8.18912 13 5.97998C13 3.77084 11.2091 1.97998 9 1.97998C6.79086 1.97998 5 3.77084 5 5.97998C5 8.18912 6.79086 9.97998 9 9.97998Z" stroke="#A5A5A5" stroke-width="2" stroke-linecap="round" stroke-linejoin="round"/>
<path d="M23 19.9799V17.9799C22.9993 17.0936 22.7044 16.2326 22.1614 15.5322C21.6184 14.8317 20.8581 14.3314 20 14.1099" stroke="#A5A5A5" stroke-width="2" stroke-linecap="round" stroke-linejoin="round"/>
<path d="M16 2.10986C16.8604 2.33016 17.623 2.83056 18.1676 3.53217C18.7122 4.23378 19.0078 5.09669 19.0078 5.98486C19.0078 6.87303 18.7122 7.73594 18.1676 8.43755C17.623 9.13916 16.8604 9.63956 16 9.85986" stroke="#A5A5A5" stroke-width="2" stroke-linecap="round" stroke-linejoin="round"/>
</svg>
