<svg width="95" height="99" viewBox="0 0 95 99" fill="none" xmlns="http://www.w3.org/2000/svg">
<path d="M47.9751 52.7176C47.698 52.6763 47.3417 52.6763 47.0251 52.7176C40.0584 52.4701 34.5166 46.5301 34.5166 39.2287C34.5166 31.7625 40.2959 25.6987 47.5001 25.6987C54.6646 25.6987 60.4834 31.7625 60.4834 39.2287C60.4438 46.5301 54.9417 52.4701 47.9751 52.7176Z" stroke="#292D32" stroke-width="1.5" stroke-linecap="round" stroke-linejoin="round"/>
<path d="M74.1791 79.9428C67.1333 86.6666 57.7916 90.7503 47.4999 90.7503C37.2083 90.7503 27.8666 86.6666 20.8208 79.9428C21.2166 76.0653 23.5916 72.2703 27.8271 69.3003C38.6729 61.7928 56.4062 61.7928 67.1728 69.3003C71.4083 72.2703 73.7833 76.0653 74.1791 79.9428Z" stroke="#292D32" stroke-width="1.5" stroke-linecap="round" stroke-linejoin="round"/>
<path d="M47.4998 90.75C69.3609 90.75 87.0832 72.2815 87.0832 49.5C87.0832 26.7182 69.3609 8.25 47.4998 8.25C25.6386 8.25 7.9165 26.7182 7.9165 49.5C7.9165 72.2815 25.6386 90.75 47.4998 90.75Z" stroke="#292D32" stroke-width="1.5" stroke-linecap="round" stroke-linejoin="round"/>
</svg>
