<svg width="28" height="26" viewBox="0 0 28 26" fill="none" xmlns="http://www.w3.org/2000/svg">
<path d="M20.9998 10.4178C20.9999 9.54119 20.8546 8.66936 20.5685 7.83017C20.1622 6.63646 19.4774 5.53153 18.5582 4.58687C17.6391 3.64222 16.5062 2.87888 15.2327 2.34624C13.9592 1.8136 12.5736 1.52353 11.1655 1.4948C9.75742 1.46606 8.35818 1.6993 7.05834 2.17943C5.75851 2.65955 4.58702 3.37587 3.61968 4.28203C2.65234 5.18819 1.9107 6.26401 1.44273 7.43988C0.974764 8.61575 0.7909 9.86549 0.903036 11.1082C1.01517 12.351 1.42081 13.559 2.0937 14.6542L0.908075 18.3377C0.870976 18.453 0.864602 18.5743 0.889456 18.6921C0.914309 18.8099 0.969711 18.921 1.0513 19.0167C1.13289 19.1123 1.23845 19.1899 1.35966 19.2433C1.48087 19.2967 1.61443 19.3245 1.74983 19.3245C1.83088 19.3243 1.91153 19.3144 1.98958 19.295L6.15195 18.2448C6.74252 18.5313 7.36543 18.762 8.01045 18.9333C8.95838 19.193 9.94506 19.3248 10.9373 19.3245C13.6051 19.3218 16.1628 18.3826 18.0493 16.7128C19.9357 15.043 20.9968 12.7791 20.9998 10.4178Z" fill="#A5A5A5"/>
<path d="M27.0918 23.7592L25.9062 20.0757C27.1172 18.1029 27.4402 15.7977 26.8105 13.6229C26.1808 11.4481 24.6449 9.56459 22.5112 8.35059C22.8618 9.86845 22.826 11.4364 22.4066 12.9405C21.9871 14.4446 21.1945 15.8471 20.0863 17.0463C18.978 18.2454 17.582 19.211 15.9995 19.873C14.417 20.535 12.6879 20.8767 10.9376 20.8734C10.1577 20.8713 9.38001 20.7999 8.61621 20.6604C9.53107 21.9078 10.782 22.9343 12.2564 23.6475C13.7308 24.3606 15.3824 24.7381 17.0626 24.7459C18.7348 24.7461 20.3804 24.3751 21.8488 23.667L26.0103 24.7164C26.0884 24.7358 26.169 24.7457 26.2501 24.7459C26.3855 24.7459 26.519 24.7181 26.6403 24.6647C26.7615 24.6113 26.867 24.5337 26.9486 24.4381C27.0302 24.3425 27.0856 24.2314 27.1105 24.1135C27.1353 23.9957 27.1289 23.8744 27.0918 23.7592Z" fill="#A5A5A5"/>
</svg>
