<svg width="28" height="26" viewBox="0 0 28 26" fill="none" xmlns="http://www.w3.org/2000/svg">
<mask id="path-1-inside-1_16_447" fill="white">
<path d="M22.1667 7.12389V5.89998C22.1656 5.07862 21.7966 4.29116 21.1404 3.71038C20.4843 3.12959 19.5946 2.8029 18.6667 2.802H7C6.08275 2.80158 5.20225 3.1211 4.5493 3.69132C3.89635 4.26153 3.52354 5.03652 3.51167 5.84835C3.51085 5.86621 3.5 5.8816 3.5 5.89998V20.3572C3.50271 21.1781 3.87233 21.9647 4.52812 22.5452C5.18391 23.1256 6.07258 23.4528 7 23.4552H21C21.9274 23.4528 22.8161 23.1256 23.4719 22.5452C24.1277 21.9647 24.4973 21.1781 24.5 20.3572V10.0306C24.4965 9.39244 24.2704 8.77078 23.8528 8.25054C23.4352 7.7303 22.8464 7.33684 22.1667 7.12389ZM18.6667 19.3246C18.6657 19.5982 18.5425 19.8604 18.3239 20.0539C18.1053 20.2473 17.8091 20.3564 17.5 20.3572H10.5C10.1909 20.3564 9.89465 20.2473 9.67606 20.0539C9.45747 19.8604 9.33426 19.5982 9.33333 19.3246C9.18985 18.5184 9.28901 17.693 9.62083 16.9315C9.95264 16.17 10.5054 15.4995 11.2233 14.9874C10.7582 14.4549 10.504 13.8017 10.5 13.1286C10.5 12.307 10.8687 11.519 11.5251 10.938C12.1815 10.357 13.0717 10.0306 14 10.0306C14.9283 10.0306 15.8185 10.357 16.4749 10.938C17.1313 11.519 17.5 12.307 17.5 13.1286C17.496 13.8017 17.2418 14.4549 16.7767 14.9874C17.4942 15.4998 18.0466 16.1704 18.3784 16.9318C18.7102 17.6931 18.8096 18.5184 18.6667 19.3246ZM19.8333 6.93264H7.14187C6.985 6.94685 6.82651 6.93285 6.67591 6.89146C6.52532 6.85008 6.38573 6.78217 6.26554 6.69183C6.14535 6.60148 6.04703 6.49056 5.9765 6.36573C5.90597 6.2409 5.86468 6.10473 5.85511 5.96541C5.84554 5.8261 5.86789 5.68651 5.92081 5.55503C5.97374 5.42356 6.05615 5.30291 6.16309 5.20034C6.27003 5.09777 6.3993 5.0154 6.54312 4.95817C6.68694 4.90094 6.84234 4.87004 7 4.86732H18.6667C18.976 4.8676 19.2726 4.97648 19.4913 5.17008C19.71 5.36369 19.833 5.62619 19.8333 5.89998V6.93264Z"/>
</mask>
<path d="M22.1667 7.12389V5.89998C22.1656 5.07862 21.7966 4.29116 21.1404 3.71038C20.4843 3.12959 19.5946 2.8029 18.6667 2.802H7C6.08275 2.80158 5.20225 3.1211 4.5493 3.69132C3.89635 4.26153 3.52354 5.03652 3.51167 5.84835C3.51085 5.86621 3.5 5.8816 3.5 5.89998V20.3572C3.50271 21.1781 3.87233 21.9647 4.52812 22.5452C5.18391 23.1256 6.07258 23.4528 7 23.4552H21C21.9274 23.4528 22.8161 23.1256 23.4719 22.5452C24.1277 21.9647 24.4973 21.1781 24.5 20.3572V10.0306C24.4965 9.39244 24.2704 8.77078 23.8528 8.25054C23.4352 7.7303 22.8464 7.33684 22.1667 7.12389ZM18.6667 19.3246C18.6657 19.5982 18.5425 19.8604 18.3239 20.0539C18.1053 20.2473 17.8091 20.3564 17.5 20.3572H10.5C10.1909 20.3564 9.89465 20.2473 9.67606 20.0539C9.45747 19.8604 9.33426 19.5982 9.33333 19.3246C9.18985 18.5184 9.28901 17.693 9.62083 16.9315C9.95264 16.17 10.5054 15.4995 11.2233 14.9874C10.7582 14.4549 10.504 13.8017 10.5 13.1286C10.5 12.307 10.8687 11.519 11.5251 10.938C12.1815 10.357 13.0717 10.0306 14 10.0306C14.9283 10.0306 15.8185 10.357 16.4749 10.938C17.1313 11.519 17.5 12.307 17.5 13.1286C17.496 13.8017 17.2418 14.4549 16.7767 14.9874C17.4942 15.4998 18.0466 16.1704 18.3784 16.9318C18.7102 17.6931 18.8096 18.5184 18.6667 19.3246ZM19.8333 6.93264H7.14187C6.985 6.94685 6.82651 6.93285 6.67591 6.89146C6.52532 6.85008 6.38573 6.78217 6.26554 6.69183C6.14535 6.60148 6.04703 6.49056 5.9765 6.36573C5.90597 6.2409 5.86468 6.10473 5.85511 5.96541C5.84554 5.8261 5.86789 5.68651 5.92081 5.55503C5.97374 5.42356 6.05615 5.30291 6.16309 5.20034C6.27003 5.09777 6.3993 5.0154 6.54312 4.95817C6.68694 4.90094 6.84234 4.87004 7 4.86732H18.6667C18.976 4.8676 19.2726 4.97648 19.4913 5.17008C19.71 5.36369 19.833 5.62619 19.8333 5.89998V6.93264Z" fill="#6418C3"/>
<path d="M22.1667 5.89998H43.5V5.88675L43.5 5.87351L22.1667 5.89998ZM18.6667 2.802L18.6874 -18.5313L18.677 -18.5313H18.6667V2.802ZM7 2.802L6.9902 24.1353H7V2.802ZM3.51167 5.84835L24.8227 6.82255L24.8379 6.49164L24.8427 6.16043L3.51167 5.84835ZM3.5 20.3572H-17.8333V20.3924L-17.8332 20.4276L3.5 20.3572ZM7 23.4552L6.94485 44.7885L6.97243 44.7885H7V23.4552ZM21 23.4552V44.7885H21.0276L21.0551 44.7885L21 23.4552ZM24.5 20.3572L45.8332 20.4276L45.8333 20.3924V20.3572H24.5ZM24.5 10.0306H45.8333V9.97132L45.833 9.91202L24.5 10.0306ZM17.5 20.3572V41.6906H17.5282L17.5564 41.6905L17.5 20.3572ZM10.5 20.3572L10.4436 41.6905L10.4718 41.6906H10.5V20.3572ZM9.33333 19.3246L30.6665 19.2526L30.6603 17.4052L30.3366 15.5864L9.33333 19.3246ZM11.2233 14.9874L23.6114 32.3554L42.7786 18.6841L27.2901 0.952839L11.2233 14.9874ZM10.5 13.1286H-10.8333V13.192L-10.833 13.2555L10.5 13.1286ZM14 10.0306V-11.3027V10.0306ZM17.5 13.1286L38.833 13.2555L38.8333 13.192V13.1286L17.5 13.1286ZM16.7767 14.9874L0.709855 0.952839L-14.7699 18.6741L4.37892 32.3485L16.7767 14.9874ZM19.8333 6.93264V28.266H41.1667V6.93264H19.8333ZM7.14187 6.93264V-14.4007H6.1776L5.21726 -14.3137L7.14187 6.93264ZM7 4.86732V-16.466H6.81621L6.63245 -16.4628L7 4.86732ZM18.6667 4.86732L18.6855 -16.466L18.6761 -16.466H18.6667V4.86732ZM19.8333 5.89998H41.1667V5.88795L41.1667 5.87592L19.8333 5.89998ZM43.5 7.12389V5.89998H0.833332V7.12389H43.5ZM43.5 5.87351C43.4908 -1.494 40.1588 -7.9457 35.28 -12.2641L7.00083 19.6848C3.43437 16.528 0.840451 11.6513 0.833349 5.92645L43.5 5.87351ZM35.28 -12.2641C30.4851 -16.5082 24.4833 -18.5257 18.6874 -18.5313L18.6459 24.1353C14.7059 24.1315 10.4834 22.7674 7.00083 19.6848L35.28 -12.2641ZM18.6667 -18.5313H7V24.1353H18.6667V-18.5313ZM7.0098 -18.5313C1.2554 -18.534 -4.70185 -16.5528 -9.48329 -12.3772L18.5819 19.7598C15.1063 22.795 10.9101 24.1371 6.9902 24.1353L7.0098 -18.5313ZM-9.48329 -12.3772C-14.3455 -8.13107 -17.7125 -1.7718 -17.8194 5.53627L24.8427 6.16043C24.7596 11.8448 22.1382 16.6541 18.5819 19.7598L-9.48329 -12.3772ZM-17.7994 4.87415C-17.708 2.87531 -17.3515 1.2938 -17.1025 0.360792C-16.9776 -0.10716 -16.862 -0.47545 -16.7979 -0.674395C-16.7649 -0.776661 -16.7382 -0.856837 -16.7257 -0.894121C-16.721 -0.908413 -16.7002 -0.970113 -16.717 -0.920167C-16.7247 -0.89713 -16.8 -0.674606 -16.8867 -0.392691C-16.978 -0.0961874 -17.1115 0.360225 -17.2465 0.924549C-17.5187 2.06269 -17.8333 3.78478 -17.8333 5.89998H24.8333C24.8333 8.006 24.5201 9.71927 24.2499 10.8488C24.116 11.4088 23.9836 11.861 23.8937 12.1532C23.8083 12.4309 23.7344 12.6493 23.7281 12.6681C23.712 12.716 23.7334 12.6522 23.7389 12.6358C23.7521 12.5964 23.7795 12.5141 23.8131 12.4098C23.8785 12.2066 23.9955 11.8341 24.1215 11.3619C24.3728 10.4205 24.731 8.83032 24.8227 6.82255L-17.7994 4.87415ZM-17.8333 5.89998V20.3572H24.8333V5.89998H-17.8333ZM-17.8332 20.4276C-17.809 27.7779 -14.4795 34.2107 -9.61147 38.5196L18.6677 6.57073C22.2242 9.71869 24.8144 14.5784 24.8332 20.2868L-17.8332 20.4276ZM-9.61147 38.5196C-4.82649 42.755 1.16044 44.7735 6.94485 44.7885L7.05515 2.12194C10.9847 2.1321 15.1943 3.49629 18.6677 6.57073L-9.61147 38.5196ZM7 44.7885H21V2.12187H7V44.7885ZM21.0551 44.7885C26.8396 44.7735 32.8265 42.755 37.6115 38.5196L9.33229 6.57073C12.8057 3.49629 17.0153 2.1321 20.9449 2.12194L21.0551 44.7885ZM37.6115 38.5196C42.4795 34.2107 45.809 27.7779 45.8332 20.4276L3.16678 20.2868C3.18562 14.5783 5.77583 9.71868 9.33229 6.57073L37.6115 38.5196ZM45.8333 20.3572V10.0306H3.16667V20.3572H45.8333ZM45.833 9.91202C45.8014 4.2281 43.7741 -1.01182 40.4891 -5.104L7.2165 21.6051C4.7668 18.5534 3.1915 14.5568 3.167 10.1492L45.833 9.91202ZM40.4891 -5.104C37.2401 -9.15147 32.9756 -11.8455 28.5448 -13.2337L15.7885 27.4815C12.7171 26.5192 9.63031 24.6121 7.2165 21.6051L40.4891 -5.104ZM-2.66655 19.2526C-2.64544 12.9975 0.191046 7.61403 4.18435 4.07941L32.4635 36.0283C36.894 32.1067 39.9769 26.1989 39.9999 19.3965L-2.66655 19.2526ZM4.18435 4.07941C8.09459 0.618305 12.8961 -0.964012 17.4436 -0.976033L17.5564 41.6905C22.7221 41.6768 28.1161 39.8764 32.4635 36.0283L4.18435 4.07941ZM17.5 -0.976108H10.5V41.6906H17.5V-0.976108ZM10.5564 -0.976033C15.1039 -0.964012 19.9054 0.618305 23.8156 4.07941L-4.46353 36.0283C-0.116097 39.8764 5.27786 41.6768 10.4436 41.6905L10.5564 -0.976033ZM23.8156 4.07941C27.809 7.61403 30.6454 12.9975 30.6665 19.2526L-11.9999 19.3965C-11.9769 26.1989 -8.89402 32.1067 -4.46353 36.0283L23.8156 4.07941ZM30.3366 15.5864C30.9411 18.9831 30.5003 22.4192 29.1779 25.4539L-9.93628 8.40914C-11.9223 12.9667 -12.5614 18.0537 -11.6699 23.0627L30.3366 15.5864ZM29.1779 25.4539C27.8693 28.4569 25.8382 30.767 23.6114 32.3554L-1.16469 -2.38062C-4.82747 0.231915 -7.96403 3.88322 -9.93628 8.40914L29.1779 25.4539ZM27.2901 0.952839C30.0069 4.06297 31.8049 8.28326 31.833 13.0018L-10.833 13.2555C-10.7969 19.3201 -8.49049 24.8468 -4.84348 29.0219L27.2901 0.952839ZM31.8333 13.1286C31.8333 18.8632 29.2372 23.7503 25.6647 26.9125L-2.61446 -5.03645C-7.4997 -0.712348 -10.8333 5.75071 -10.8333 13.1286H31.8333ZM25.6647 26.9125C22.1766 29.9999 17.9463 31.364 14 31.364V-11.3027C8.19723 -11.3027 2.18641 -9.28589 -2.61446 -5.03645L25.6647 26.9125ZM14 31.364C10.0537 31.364 5.82341 29.9999 2.33529 26.9125L30.6145 -5.03645C25.8136 -9.28589 19.8028 -11.3027 14 -11.3027V31.364ZM2.33529 26.9125C-1.2372 23.7503 -3.83333 18.8632 -3.83333 13.1286L38.8333 13.1286C38.8333 5.75071 35.4997 -0.712348 30.6145 -5.03645L2.33529 26.9125ZM-3.83296 13.0018C-3.8049 8.28326 -2.00688 4.06297 0.709855 0.952839L32.8435 29.0219C36.4905 24.8468 38.7969 19.3201 38.833 13.2555L-3.83296 13.0018ZM4.37892 32.3485C2.15563 30.7608 0.128118 28.453 -1.1787 25.4541L37.9355 8.4094C35.9651 3.88779 32.8328 0.238785 29.1744 -2.37369L4.37892 32.3485ZM-1.1787 25.4541C-2.49925 22.4237 -2.94055 18.9926 -2.33903 15.6001L39.6724 23.0491C40.5598 18.0442 39.9196 12.9625 37.9355 8.4094L-1.1787 25.4541ZM19.8333 -14.4007H7.14187V28.266H19.8333V-14.4007ZM5.21726 -14.3137C7.58412 -14.5281 9.99306 -14.3212 12.3288 -13.6793L1.02301 27.4622C3.65996 28.1869 6.38589 28.4218 9.06648 28.179L5.21726 -14.3137ZM12.3288 -13.6793C14.6649 -13.0373 16.9754 -11.946 19.0839 -10.3611L-6.55278 23.7447C-4.2039 25.5103 -1.6143 26.7375 1.02301 27.4622L12.3288 -13.6793ZM19.0839 -10.3611C21.1968 -8.77285 23.1045 -6.68729 24.5501 -4.12863L-12.5971 16.8601C-11.0104 19.6684 -8.90608 21.9758 -6.55278 23.7447L19.0839 -10.3611ZM24.5501 -4.12863C26.002 -1.55895 26.9238 1.38107 27.1383 4.50347L-15.4281 7.42735C-15.1945 10.8284 -14.1901 14.0407 -12.5971 16.8601L24.5501 -4.12863ZM27.1383 4.50347C27.353 7.62879 26.8428 10.7096 25.7109 13.5216L-13.8692 -2.4115C-15.107 0.663424 -15.6619 4.02341 -15.4281 7.42735L27.1383 4.50347ZM25.7109 13.5216C24.5834 16.3223 22.9035 18.7039 20.9301 20.5967L-8.60389 -10.196C-10.7912 -8.09811 -12.6359 -5.47516 -13.8692 -2.4115L25.7109 13.5216ZM20.9301 20.5967C18.9626 22.4838 16.7278 23.8657 14.4304 24.7799L-1.34421 -14.8636C-3.92922 -13.835 -6.42249 -12.2882 -8.60389 -10.196L20.9301 20.5967ZM14.4304 24.7799C12.1342 25.6936 9.73794 26.1566 7.36755 26.1975L6.63245 -16.4628C3.94675 -16.4166 1.2397 -15.8917 -1.34421 -14.8636L14.4304 24.7799ZM7 26.2007H18.6667V-16.466H7V26.2007ZM18.6478 26.2006C14.0886 26.1966 9.27222 24.6147 5.35169 21.1445L33.6309 -10.8044C29.2729 -14.6618 23.8634 -16.4614 18.6855 -16.466L18.6478 26.2006ZM5.35169 21.1445C1.34727 17.6001 -1.49291 12.1974 -1.49999 5.92405L41.1667 5.87592C41.159 -0.944991 38.0727 -6.8727 33.6309 -10.8044L5.35169 21.1445ZM-1.5 5.89998V6.93264H41.1667V5.89998H-1.5Z" fill="#A5A5A5" mask="url(#path-1-inside-1_16_447)"/>
</svg>
