<svg width="33" height="28" viewBox="0 0 33 28" fill="none" xmlns="http://www.w3.org/2000/svg">
<path d="M30.0188 19.3435L27.4998 16.1948V11.9583C27.4998 9.52714 26.3409 7.19556 24.278 5.47648C22.2151 3.7574 19.4172 2.79163 16.4998 2.79163C13.5825 2.79163 10.7846 3.7574 8.72166 5.47648C6.65876 7.19556 5.49984 9.52714 5.49984 11.9583V16.1948L2.98084 19.3435C2.84323 19.5162 2.76433 19.7167 2.75253 19.9237C2.74072 20.1307 2.79646 20.3365 2.9138 20.5192C3.03115 20.702 3.20572 20.8548 3.41896 20.9614C3.6322 21.0681 3.87614 21.1246 4.12484 21.125H28.8748C29.1235 21.1246 29.3675 21.0681 29.5807 20.9614C29.794 20.8548 29.9685 20.702 30.0859 20.5192C30.2032 20.3365 30.2589 20.1307 30.2471 19.9237C30.2353 19.7167 30.1564 19.5162 30.0188 19.3435Z" fill="black"/>
<path d="M16.5 25.7083C17.7191 25.7092 18.9039 25.3718 19.8674 24.7493C20.8309 24.1269 21.5184 23.2548 21.8212 22.2708H11.1787C11.4816 23.2548 12.169 24.1269 13.1325 24.7493C14.096 25.3718 15.2808 25.7092 16.5 25.7083Z" fill="black"/>
</svg>
