<svg width="28" height="26" viewBox="0 0 28 26" fill="none" xmlns="http://www.w3.org/2000/svg">
<path d="M25.5588 9.9067C25.0482 9.84106 24.5609 9.67431 24.1333 9.41887C23.7056 9.16343 23.3485 8.82588 23.0887 8.43136C22.8288 8.03684 22.6728 7.59552 22.6324 7.14025C22.5919 6.68498 22.668 6.2275 22.855 5.80188C22.9739 5.52362 22.9914 5.21942 22.9051 4.93191C22.8188 4.6444 22.633 4.38801 22.3738 4.19867C21.2293 3.34802 19.9266 2.67977 18.5238 2.22371C18.2043 2.11868 17.8556 2.10555 17.5272 2.18621C17.1989 2.26687 16.9076 2.43719 16.695 2.67292C16.375 3.03511 15.966 3.32805 15.4991 3.52952C15.0321 3.73099 14.5195 3.83569 14 3.83569C13.4806 3.83569 12.9679 3.73099 12.501 3.52952C12.034 3.32805 11.625 3.03511 11.305 2.67292C11.0924 2.43719 10.8012 2.26687 10.4728 2.18621C10.1445 2.10555 9.79571 2.11868 9.47627 2.22371C8.18098 2.64476 6.96991 3.2461 5.88877 4.00505C5.61625 4.19601 5.41995 4.45919 5.32863 4.75604C5.23731 5.05289 5.25575 5.36782 5.38127 5.65472C5.58318 6.09161 5.6666 6.5643 5.62485 7.03487C5.58309 7.50545 5.41731 7.96081 5.14082 8.36444C4.86433 8.76806 4.48481 9.10871 4.03271 9.35906C3.58062 9.60941 3.06853 9.76249 2.53752 9.80602C2.19278 9.83864 1.86898 9.96838 1.61379 10.1761C1.35861 10.3839 1.18552 10.6587 1.12002 10.96C0.957092 11.6739 0.875019 12.4003 0.875019 13.1286C0.873821 13.7383 0.929427 14.3471 1.04127 14.9487C1.09693 15.2597 1.2668 15.5458 1.5246 15.7628C1.78241 15.9798 2.11379 16.1156 2.46752 16.1491C3.01019 16.1942 3.53277 16.3537 3.99151 16.6142C4.45026 16.8748 4.83182 17.2288 5.10427 17.6466C5.37672 18.0645 5.53213 18.534 5.55749 19.0159C5.58284 19.4979 5.47741 19.9781 5.25002 20.4166C5.10121 20.7018 5.06429 21.0228 5.14514 21.3287C5.22599 21.6346 5.41996 21.9078 5.69627 22.105C6.83387 22.9402 8.12402 23.5976 9.51127 24.049C9.68867 24.1034 9.8748 24.1321 10.0625 24.1342C10.3199 24.1337 10.5734 24.0786 10.8018 23.9735C11.0302 23.8683 11.2267 23.7163 11.375 23.5301C11.6869 23.1279 12.1049 22.7992 12.5929 22.5724C13.0808 22.3457 13.6239 22.2278 14.175 22.2289C14.709 22.2295 15.2354 22.3405 15.7124 22.5529C16.1894 22.7653 16.6038 23.0734 16.9225 23.4526C17.1345 23.7049 17.4349 23.888 17.7767 23.9735C18.1186 24.0589 18.4827 24.0419 18.8125 23.9251C20.081 23.4732 21.2619 22.8486 22.3125 22.074C22.5764 21.8809 22.7644 21.6186 22.8493 21.325C22.9342 21.0314 22.9117 20.7214 22.785 20.4398C22.5792 20.0086 22.4895 19.5409 22.5229 19.0737C22.5563 18.6065 22.712 18.1525 22.9776 17.7477C23.2432 17.3428 23.6114 16.9982 24.0533 16.7409C24.4952 16.4837 24.9986 16.3208 25.5238 16.2653C25.8643 16.2236 26.181 16.0871 26.428 15.8754C26.675 15.6638 26.8394 15.388 26.8975 15.0881C27.038 14.4421 27.1142 13.7864 27.125 13.1286C27.1252 12.4348 27.052 11.7424 26.9063 11.0607C26.8472 10.7674 26.6852 10.498 26.4433 10.2909C26.2014 10.0837 25.8919 9.94929 25.5588 9.9067ZM18.375 13.1286C18.375 13.8945 18.1184 14.6432 17.6377 15.28C17.157 15.9169 16.4737 16.4132 15.6743 16.7063C14.8748 16.9994 13.9952 17.0761 13.1465 16.9267C12.2978 16.7772 11.5183 16.4084 10.9064 15.8669C10.2946 15.3253 9.87789 14.6353 9.70908 13.8841C9.54027 13.1329 9.62691 12.3543 9.95805 11.6467C10.2892 10.9391 10.8499 10.3343 11.5694 9.90876C12.2889 9.48324 13.1347 9.25613 14 9.25613C15.1603 9.25613 16.2731 9.66412 17.0936 10.3903C17.9141 11.1166 18.375 12.1016 18.375 13.1286Z" fill="#A5A5A5"/>
</svg>
