<svg width="349" height="211" viewBox="0 0 349 211" fill="none" xmlns="http://www.w3.org/2000/svg">
<path d="M59.4161 81.1261V90.7618H46.3341V130.5H34.3071V90.7618H21.2251V81.1261H59.4161ZM63.0608 110.807C63.0608 106.774 63.811 103.234 65.3115 100.186C66.8588 97.1387 68.9454 94.7942 71.5711 93.1531C74.1969 91.512 77.1275 90.6915 80.3628 90.6915C83.1293 90.6915 85.544 91.2541 87.6071 92.3795C89.7171 93.5048 91.3348 94.9818 92.4601 96.8105V91.2541H104.487V130.5H92.4601V124.944C91.2879 126.772 89.6468 128.249 87.5368 129.375C85.4737 130.5 83.0589 131.063 80.2925 131.063C77.104 131.063 74.1969 130.242 71.5711 128.601C68.9454 126.913 66.8588 124.545 65.3115 121.497C63.811 118.403 63.0608 114.839 63.0608 110.807ZM92.4601 110.877C92.4601 107.876 91.6161 105.508 89.9281 103.773C88.287 102.039 86.2708 101.171 83.8795 101.171C81.4881 101.171 79.4485 102.039 77.7605 103.773C76.1194 105.461 75.2988 107.806 75.2988 110.807C75.2988 113.808 76.1194 116.199 77.7605 117.981C79.4485 119.716 81.4881 120.583 83.8795 120.583C86.2708 120.583 88.287 119.716 89.9281 117.981C91.6161 116.246 92.4601 113.878 92.4601 110.877ZM125.215 78.4535V130.5H113.188V78.4535H125.215ZM157.915 130.5L145.958 114.042V130.5H133.931V78.4535H145.958V107.22L157.844 91.2541H172.685L156.367 110.947L172.825 130.5H157.915ZM189.436 96.8105C190.561 94.9818 192.179 93.5048 194.289 92.3795C196.399 91.2541 198.813 90.6915 201.533 90.6915C204.768 90.6915 207.699 91.512 210.325 93.1531C212.95 94.7942 215.013 97.1387 216.514 100.186C218.061 103.234 218.835 106.774 218.835 110.807C218.835 114.839 218.061 118.403 216.514 121.497C215.013 124.545 212.95 126.913 210.325 128.601C207.699 130.242 204.768 131.063 201.533 131.063C198.766 131.063 196.352 130.524 194.289 129.445C192.225 128.32 190.608 126.843 189.436 125.014V130.5H177.409V78.4535H189.436V96.8105ZM206.597 110.807C206.597 107.806 205.753 105.461 204.065 103.773C202.424 102.039 200.384 101.171 197.946 101.171C195.555 101.171 193.515 102.039 191.827 103.773C190.186 105.508 189.365 107.876 189.365 110.877C189.365 113.878 190.186 116.246 191.827 117.981C193.515 119.716 195.555 120.583 197.946 120.583C200.337 120.583 202.377 119.716 204.065 117.981C205.753 116.199 206.597 113.808 206.597 110.807ZM243.009 131.063C239.164 131.063 235.695 130.242 232.6 128.601C229.552 126.96 227.137 124.616 225.356 121.568C223.621 118.52 222.753 114.956 222.753 110.877C222.753 106.845 223.644 103.305 225.426 100.257C227.208 97.1621 229.646 94.7942 232.741 93.1531C235.835 91.512 239.305 90.6915 243.15 90.6915C246.995 90.6915 250.465 91.512 253.559 93.1531C256.654 94.7942 259.092 97.1621 260.874 100.257C262.656 103.305 263.547 106.845 263.547 110.877C263.547 114.91 262.632 118.473 260.804 121.568C259.022 124.616 256.56 126.96 253.419 128.601C250.324 130.242 246.854 131.063 243.009 131.063ZM243.009 120.653C245.307 120.653 247.253 119.809 248.847 118.121C250.488 116.433 251.309 114.019 251.309 110.877C251.309 107.736 250.511 105.321 248.917 103.633C247.37 101.945 245.447 101.101 243.15 101.101C240.805 101.101 238.86 101.945 237.312 103.633C235.765 105.274 234.991 107.689 234.991 110.877C234.991 114.019 235.741 116.433 237.242 118.121C238.789 119.809 240.712 120.653 243.009 120.653Z" fill="black"/>
<mask id="path-2-outside-1_26_2" maskUnits="userSpaceOnUse" x="264.491" y="72.537" width="68" height="61" fill="black">
<rect fill="white" x="264.491" y="72.537" width="68" height="61"/>
<path d="M308.315 131.537L297.445 115.79L288.301 131.537H269.507L288.2 102.583L268.999 74.8483H288.504L299.375 90.4936L308.518 74.8483H327.313L308.315 103.396L327.821 131.537H308.315Z"/>
</mask>
<path d="M308.315 131.537L297.445 115.79L288.301 131.537H269.507L288.2 102.583L268.999 74.8483H288.504L299.375 90.4936L308.518 74.8483H327.313L308.315 103.396L327.821 131.537H308.315Z" fill="url(#paint0_linear_26_2)"/>
<path d="M308.315 131.537L306.707 132.647L307.29 133.491H308.315V131.537ZM297.445 115.79L299.052 114.68L297.302 112.145L295.755 114.809L297.445 115.79ZM288.301 131.537V133.491H289.426L289.991 132.518L288.301 131.537ZM269.507 131.537L267.865 130.477L265.92 133.491H269.507V131.537ZM288.2 102.583L289.841 103.643L290.55 102.545L289.806 101.471L288.2 102.583ZM268.999 74.8483V72.8946H265.27L267.392 75.9604L268.999 74.8483ZM288.504 74.8483L290.109 73.7335L289.526 72.8946H288.504V74.8483ZM299.375 90.4936L297.77 91.6084L299.517 94.1222L301.062 91.4794L299.375 90.4936ZM308.518 74.8483V72.8946H307.397L306.831 73.8625L308.518 74.8483ZM327.313 74.8483L328.939 75.9307L330.96 72.8946H327.313V74.8483ZM308.315 103.396L306.689 102.313L305.953 103.418L306.709 104.509L308.315 103.396ZM327.821 131.537V133.491H331.552L329.426 130.424L327.821 131.537ZM309.923 130.427L299.052 114.68L295.837 116.9L306.707 132.647L309.923 130.427ZM295.755 114.809L286.612 130.556L289.991 132.518L299.134 116.771L295.755 114.809ZM288.301 129.583H269.507V133.491H288.301V129.583ZM271.148 132.597L289.841 103.643L286.558 101.523L267.865 130.477L271.148 132.597ZM289.806 101.471L270.605 73.7362L267.392 75.9604L286.593 103.695L289.806 101.471ZM268.999 76.802H288.504V72.8946H268.999V76.802ZM286.9 75.9631L297.77 91.6084L300.979 89.3788L290.109 73.7335L286.9 75.9631ZM301.062 91.4794L310.205 75.8341L306.831 73.8625L297.688 89.5078L301.062 91.4794ZM308.518 76.802H327.313V72.8946H308.518V76.802ZM325.686 73.7659L306.689 102.313L309.941 104.478L328.939 75.9307L325.686 73.7659ZM306.709 104.509L326.215 132.65L329.426 130.424L309.921 102.283L306.709 104.509ZM327.821 129.583H308.315V133.491H327.821V129.583Z" fill="black" mask="url(#path-2-outside-1_26_2)"/>
<defs>
<linearGradient id="paint0_linear_26_2" x1="299.75" y1="93.377" x2="299.75" y2="271.915" gradientUnits="userSpaceOnUse">
<stop stop-color="#E67E22"/>
<stop offset="1" stop-color="#FE8660"/>
</linearGradient>
</defs>
</svg>
