<svg width="28" height="28" viewBox="0 0 28 28" fill="none" xmlns="http://www.w3.org/2000/svg">
<g clip-path="url(#clip0_70_379)">
<path d="M1.76273 27.4437L1.76273 27.4436L1.75629 27.4437C1.43787 27.4455 1.1318 27.3205 0.905708 27.0962L0.90568 27.0962C0.435869 26.6302 0.43276 25.8717 0.89875 25.4019L0.902239 25.3984L0.907249 25.3934L0.907283 25.3934L5.89348 20.4072C6.41707 21.0395 7.0003 21.6206 7.63456 22.1418L2.61436 27.0952L2.61332 27.0962C2.38722 27.3205 2.08116 27.4455 1.76273 27.4437ZM8.4241 21.3628C7.78251 20.846 7.19663 20.2629 6.67689 19.6238L7.4812 18.8195C7.92344 18.3951 8.59998 18.3645 9.076 18.7201C9.15719 18.8039 9.23993 18.8862 9.32419 18.9668C9.69623 19.4585 9.65083 20.1618 9.19619 20.601L9.19617 20.601L9.19202 20.6051L8.4241 21.3628ZM8.00839 17.3958C7.53667 17.4623 7.08089 17.6731 6.71205 18.0295L6.71199 18.0294L6.70526 18.0361L6.01521 18.7262C4.78004 16.8722 4.06017 14.6455 4.06017 12.2506C4.06017 5.79203 9.29584 0.556407 15.7544 0.556407C22.213 0.556407 27.4487 5.79209 27.4487 12.2507C27.4487 18.7093 22.213 23.9449 15.7544 23.9449C13.38 23.9449 11.1709 23.2373 9.32645 22.0214L9.96449 21.3918C10.3564 21.0123 10.587 20.5287 10.6549 20.0269C12.1192 20.989 13.8714 21.5488 15.7544 21.5488C20.8897 21.5488 25.0525 17.3859 25.0525 12.2507C25.0525 7.11547 20.8896 2.9526 15.7544 2.9526C10.6192 2.9526 6.45636 7.11547 6.45636 12.2507C6.45636 14.1533 7.02779 15.9224 8.00839 17.3958Z" fill="#FE8660" stroke="#FE8660" stroke-width="1.10256"/>
</g>
<defs>
<clipPath id="clip0_70_379">
<rect width="28" height="28" rx="14" fill="white"/>
</clipPath>
</defs>
</svg>
